<svg width="334" height="194" viewBox="0 0 334 194" fill="none" xmlns="http://www.w3.org/2000/svg">
<path d="M325.23 98V81.2401C325.699 81.1601 326.214 81.104 326.775 81.072C327.347 81.024 327.937 81 328.543 81C329.539 81 330.386 81.2241 331.084 81.6723C331.782 82.1045 332.314 82.7048 332.681 83.4732C333.047 84.2415 333.23 85.1219 333.23 86.1144C333.23 87.315 333.018 88.3314 332.595 89.1638C332.171 89.9962 331.582 90.6365 330.827 91.0847C330.071 91.517 329.196 91.7331 328.2 91.7331C327.719 91.7331 327.273 91.709 326.861 91.661V98H325.23ZM328.406 89.8362C329.425 89.8362 330.214 89.516 330.775 88.8757C331.336 88.2354 331.616 87.379 331.616 86.3065C331.616 85.266 331.347 84.4416 330.809 83.8333C330.272 83.225 329.505 82.9209 328.509 82.9209C328.2 82.9209 327.908 82.9289 327.633 82.9449C327.359 82.9609 327.101 82.9849 326.861 83.0169V89.7161C327.044 89.7481 327.267 89.7801 327.53 89.8121C327.794 89.8282 328.086 89.8362 328.406 89.8362Z" fill="#7B797C"/>
<path d="M286.753 100L285.429 95.2113H279.929L278.605 99.9521L277.23 99.162L281.881 83H283.647L288.23 99.162L286.753 100ZM280.438 93.2958H284.903L282.679 85.2507L280.438 93.2958Z" fill="#7B797C"/>
<path d="M231.23 98V83H233.874L237.73 92.4929L241.527 83H244.23V98H242.342V85.5929L238.625 94.6143H236.756L233.019 85.5929V98H231.23Z" fill="#7B797C"/>
<path d="M187.285 100C186.654 100 186.101 99.9735 185.625 99.9204C185.16 99.8673 184.695 99.8054 184.23 99.7346V81.2654C184.75 81.1769 185.26 81.115 185.758 81.0796C186.256 81.0265 186.826 81 187.468 81C188.464 81 189.322 81.2477 190.042 81.743C190.772 82.2384 191.37 82.9195 191.835 83.7863C192.311 84.6532 192.66 85.6615 192.881 86.8115C193.114 87.9437 193.23 89.1643 193.23 90.4735C193.23 91.7649 193.114 92.9856 192.881 94.1355C192.649 95.2854 192.289 96.3026 191.802 97.1872C191.326 98.054 190.712 98.7439 189.959 99.257C189.217 99.7523 188.326 100 187.285 100ZM187.335 97.7975C188.331 97.7975 189.145 97.4879 189.776 96.8687C190.407 96.2495 190.872 95.3915 191.171 94.2947C191.47 93.1802 191.619 91.9064 191.619 90.4735C191.619 89.1997 191.47 88.0056 191.171 86.8911C190.872 85.7765 190.413 84.8831 189.793 84.2109C189.173 83.5209 188.381 83.176 187.418 83.176C187.097 83.176 186.804 83.1937 186.538 83.2291C186.272 83.2467 186.029 83.2733 185.808 83.3087V97.6648C186.04 97.7179 186.284 97.7533 186.538 97.771C186.793 97.7886 187.058 97.7975 187.335 97.7975Z" fill="#7B797C"/>
<path d="M136.23 98V83H138.39L143.687 95.4714V83H145.23V98H143.104L137.773 85.6143V98H136.23Z" fill="#7B797C"/>
<path d="M93.23 98V83H100.23V84.7571H94.8133V89.3214H99.48V91.0357H94.8133V96.2429H100.23V98H93.23Z" fill="#7B797C"/>
<path d="M54.7974 100L53.397 94.9861C53.0429 93.737 52.5975 92.8486 52.061 92.3208C51.5244 91.7931 50.8377 91.5292 50.0006 91.5292H49.7592V99.6833H48.23V81.2639C48.7988 81.1759 49.3407 81.1144 49.8558 81.0792C50.3816 81.0264 50.9396 81 51.5298 81C52.9034 81 53.9336 81.4574 54.6204 82.3722C55.3179 83.287 55.6666 84.4657 55.6666 85.9083C55.6666 87.1926 55.4305 88.2306 54.9584 89.0222C54.4969 89.7963 53.8263 90.3769 52.9463 90.7639C53.236 90.975 53.4936 91.2301 53.7189 91.5292C53.9443 91.8106 54.1589 92.1977 54.3628 92.6903C54.5774 93.1653 54.792 93.7898 55.0067 94.5639L56.23 98.8917L54.7974 100ZM49.7592 89.4181H51.5298C52.3024 89.4181 52.9302 89.1366 53.4131 88.5736C53.896 88.0106 54.1375 87.2014 54.1375 86.1458C54.1375 85.2662 53.9121 84.5449 53.4614 83.9819C53.0107 83.4014 52.3668 83.1111 51.5298 83.1111C51.165 83.1111 50.8377 83.1199 50.5479 83.1375C50.2582 83.1551 49.9953 83.1815 49.7592 83.2167V89.4181Z" fill="#7B797C"/>
<path d="M4.73477 98V84.8H0.230011V83H11.23V84.8H6.72525V98H4.73477Z" fill="#7B797C"/>
<path d="M120.995 151.594H137.818V152H89.6418V151.594H106.465V104.373H120.995V151.594ZM159.23 45.6H158.848C158.848 39.1824 158.49 33.2376 157.777 27.7657C157.114 22.2263 155.942 17.4295 154.259 13.3762C152.577 9.25531 150.257 6.0798 147.3 3.85047C144.394 1.55373 140.698 0.405729 136.212 0.405729H120.995V78.0267H106.465V0.405729H91.0943C86.6081 0.40578 82.9119 1.55363 80.006 3.85047C77.1002 6.07979 74.806 9.25538 73.1237 13.3762C71.4414 17.4295 70.2439 22.2263 69.5302 27.7657C68.8674 33.2376 68.5354 39.1823 68.5354 45.6H68.23V0H159.23V45.6Z" fill="url(#paint0_linear_2_22)"/>
<path d="M169.176 194H168.954L145.388 105.283H159.753L175.989 165.652L191.555 105.283H191.937L169.176 194ZM127.93 191.552H139.408V191.961H116.896V191.552H127.633V105.283H127.93V191.552ZM222.863 191.552H233.23V191.961H196.871V191.552H208.793V105.283H222.863V191.552ZM141.926 39L152.622 78.7697H138.345L127.93 39.5577V78.7697H127.633V39.4083H116.23V39H141.926ZM233.23 39V39.4083H222.863V78.7697H208.793V39.5776L198.739 78.7697H198.391L208.645 39H233.23Z" fill="url(#paint1_linear_2_22)"/>
<defs>
<linearGradient id="paint0_linear_2_22" x1="113.73" y1="0" x2="113.73" y2="152" gradientUnits="userSpaceOnUse">
<stop stop-color="#4C1661"/>
<stop offset="0.570567" stop-color="#722292"/>
<stop offset="1" stop-color="#9B2EC7"/>
</linearGradient>
<linearGradient id="paint1_linear_2_22" x1="174.73" y1="39" x2="174.73" y2="194" gradientUnits="userSpaceOnUse">
<stop stop-color="#4C1661"/>
<stop offset="0.569021" stop-color="#742295"/>
<stop offset="1" stop-color="#9B2EC7"/>
</linearGradient>
</defs>
</svg>
